# xmcd CD database file
#
# Track frame offsets:
#	150
#	19017
#	32397
#	45567
#	78330
#	111020
#	126532
#	136077
#	146820
#	164730
#	207702
#	237607
#
# Disc length: 3503 seconds
#
# Revision: 0
# Processed by: cddbd v1.5.1PL0 Copyright (c) Steve Scherf et al.
# Submitted via: CDex 1.51
#
DISCID=ad0dad0c
DTITLE=佐野 史郎 - 君が好きだよ
DYEAR=1995
DGENRE=Rock
TTITLE0=君が好きだよ
TTITLE1=台風の予感
TTITLE2=君でなくちゃだめさ
TTITLE3=悪いことが好き
TTITLE4=海と空
TTITLE5=ロリータ
TTITLE6=天使のめざめ
TTITLE7=素敵な午後
TTITLE8=終わりの街
TTITLE9=こうして
TTITLE10=夢よ叫べ
TTITLE11=これ以上好きになれない
EXTD=YEAR: 1995
EXTT0=
EXTT1=
EXTT2=
EXTT3=
EXTT4=
EXTT5=
EXTT6=
EXTT7=
EXTT8=
EXTT9=
EXTT10=
EXTT11=
PLAYORDER=
